<?xml version="1.0" encoding="UTF-8" standalone="no"?>
<!-- Created with Inkscape (http://www.inkscape.org/) -->

<svg
   xmlns:dc="http://purl.org/dc/elements/1.1/"
   xmlns:cc="http://creativecommons.org/ns#"
   xmlns:rdf="http://www.w3.org/1999/02/22-rdf-syntax-ns#"
   xmlns:svg="http://www.w3.org/2000/svg"
   xmlns="http://www.w3.org/2000/svg"
   xmlns:sodipodi="http://sodipodi.sourceforge.net/DTD/sodipodi-0.dtd"
   xmlns:inkscape="http://www.inkscape.org/namespaces/inkscape"
   width="24in"
   height="18in"
   viewBox="0 0 604.8 453.6"
   version="1.1"
   id="svg8"
   sodipodi:docname="BusinessSlide.svg"
   inkscape:version="0.92.1 r15371">
  <defs
     id="defs2" />
  <sodipodi:namedview
     id="base"
     pagecolor="#ffffff"
     bordercolor="#666666"
     borderopacity="1.0"
     inkscape:pageopacity="0.0"
     inkscape:pageshadow="2"
     inkscape:zoom="0.35"
     inkscape:cx="1175.7143"
     inkscape:cy="860"
     inkscape:document-units="in"
     inkscape:current-layer="layer1"
     showgrid="false"
     inkscape:lockguides="false"
     showguides="true"
     inkscape:guide-bbox="true"
     units="in"
     scale-x="25.2"
     inkscape:window-width="1920"
     inkscape:window-height="1018"
     inkscape:window-x="-8"
     inkscape:window-y="-8"
     inkscape:window-maximized="1" />
  <metadata
     id="metadata5">
    <rdf:RDF>
      <cc:Work
         rdf:about="">
        <dc:format>image/svg+xml</dc:format>
        <dc:type
           rdf:resource="http://purl.org/dc/dcmitype/StillImage" />
        <dc:title></dc:title>
      </cc:Work>
    </rdf:RDF>
  </metadata>
  <g
     inkscape:label="Layer 1"
     inkscape:groupmode="layer"
     id="layer1"
     transform="translate(0,160.20001)">
    <rect
       style="fill:none;fill-opacity:1;stroke:#000000;stroke-width:1.58759999;stroke-miterlimit:4;stroke-dasharray:none;stroke-opacity:1"
       id="rect4491"
       height="50.400002"
       x="56.25"
       y="-108.60001"
       width="37.799999" />
    <path
       id="flowRoot4493"
       transform="matrix(0.2625,0,0,0.2625,0,-160.20001)"
       style="font-style:normal;font-weight:normal;font-size:40px;line-height:1.25;font-family:sans-serif;letter-spacing:0px;word-spacing:0px;fill:none;fill-opacity:1;stroke:#000000;stroke-width:6.04799986;stroke-miterlimit:4;stroke-dasharray:none;stroke-opacity:1"
       d="m 245.05273,218.26953 v 34.29102 c 4.5024,-0.88936 9.03365,-1.98965 13.21485,-2.91797 0.42093,-0.0935 0.8285,-0.16362 1.23047,-0.22266 V 234.2168 h 17.21875 c 4.81533,0 8.85247,0.21978 12.11132,0.66015 3.25888,0.37747 6.03034,1.41665 8.31641,3.11524 1.94559,1.44694 3.35691,3.33442 4.23242,5.66211 0.87552,2.32769 1.3125,5.18877 1.3125,8.58593 0,4.08919 -0.48619,7.64436 -1.45898,10.66407 -0.92416,2.95679 -2.52839,5.37831 -4.81445,7.26562 -2.28607,1.88732 -4.76818,3.14629 -7.44336,3.77539 -2.67519,0.5662 -6.27339,0.84961 -10.79688,0.84961 h -18.67773 v -10.98828 c -3.75705,0.69146 -9.31525,2.3769 -14.44532,3.4707 v 91.50196 h 38.52149 c 7.53915,0 13.7415,-0.88109 18.60547,-2.64258 4.91261,-1.7615 9.41036,-4.71705 13.49609,-8.86914 3.45342,-3.46008 6.20322,-7.86355 8.2461,-13.21094 0.85163,-2.22926 1.51511,-4.60952 2.01171,-7.12305 -4.90539,-0.74915 -9.76643,-1.82255 -14.59961,-3.02539 -0.31004,1.69221 -0.73098,3.22597 -1.27539,4.58008 -1.26463,3.14553 -3.25859,5.94493 -5.98242,8.39844 -2.5779,2.26478 -5.88478,3.838 -9.92187,4.71875 -4.0371,0.81784 -9.21786,1.22656 -15.54102,1.22656 h -19.11523 v -52.2793 h 22.68945 c 4.76669,0 8.80383,0.25258 12.11133,0.75586 3.35614,0.44038 6.2024,1.44677 8.53711,3.01953 3.45342,2.3277 5.83712,5.15794 7.15039,8.49219 0.72222,1.83364 1.23746,4.03271 1.5625,6.57031 0.52242,0.0634 1.05421,0.13855 1.61133,0.25196 4.54592,0.92539 9.12999,2.15417 13.75586,3.02539 -0.38351,-8.46048 -2.47218,-15.55205 -6.27735,-21.26563 -4.23165,-6.41687 -10.02064,-10.60055 -17.36523,-12.55078 v -0.7539 c 4.37757,-2.83098 7.87931,-6.5751 10.50586,-11.23047 2.62654,-4.71829 3.93945,-10.41157 3.93945,-17.08008 0,-5.91359 -0.89955,-10.97836 -2.69922,-15.19336 -1.79967,-4.27791 -4.69318,-7.76946 -8.68164,-10.47461 -3.59934,-2.3906 -7.36878,-3.96187 -11.30859,-4.7168 -3.93982,-0.75492 -9.87446,-1.13281 -17.80274,-1.13281 z" />
  </g>
</svg>
