<?xml version="1.0" encoding="UTF-8" standalone="no"?>
<!-- Created with Inkscape (http://www.inkscape.org/) -->

<svg
   xmlns:dc="http://purl.org/dc/elements/1.1/"
   xmlns:cc="http://creativecommons.org/ns#"
   xmlns:rdf="http://www.w3.org/1999/02/22-rdf-syntax-ns#"
   xmlns:svg="http://www.w3.org/2000/svg"
   xmlns="http://www.w3.org/2000/svg"
   xmlns:sodipodi="http://sodipodi.sourceforge.net/DTD/sodipodi-0.dtd"
   xmlns:inkscape="http://www.inkscape.org/namespaces/inkscape"
   width="24in"
   height="18in"
   viewBox="0 0 609.60001 457.20001"
   version="1.1"
   id="svg8"
   inkscape:version="0.92.1 r15371"
   sodipodi:docname="BusinessPrototype.svg">
  <defs
     id="defs2" />
  <sodipodi:namedview
     id="base"
     pagecolor="#ffffff"
     bordercolor="#666666"
     borderopacity="1.0"
     inkscape:pageopacity="0.0"
     inkscape:pageshadow="2"
     inkscape:zoom="0.35"
     inkscape:cx="400"
     inkscape:cy="560"
     inkscape:document-units="in"
     inkscape:current-layer="layer1"
     showgrid="false"
     units="in"
     inkscape:window-width="1920"
     inkscape:window-height="1018"
     inkscape:window-x="-8"
     inkscape:window-y="-8"
     inkscape:window-maximized="1" />
  <metadata
     id="metadata5">
    <rdf:RDF>
      <cc:Work
         rdf:about="">
        <dc:format>image/svg+xml</dc:format>
        <dc:type
           rdf:resource="http://purl.org/dc/dcmitype/StillImage" />
        <dc:title></dc:title>
      </cc:Work>
    </rdf:RDF>
  </metadata>
  <g
     inkscape:label="Layer 1"
     inkscape:groupmode="layer"
     id="layer1"
     transform="translate(0,160.20002)">
    <g
       id="g54"
       transform="matrix(0.28222222,0,0,0.28222222,59.871444,-98.363095)">
      <g
         id="g12"
         transform="translate(22.5,22.5)">
        <polygon
           id="polygon10"
           points="540,0 540,114.75 526.5,114.75 526.5,229.5 540,229.5 540,310.5 526.5,310.5 526.5,425.25 540,425.25 540,540 425.25,540 425.25,526.5 310.5,526.5 310.5,540 229.5,540 229.5,526.5 114.75,526.5 114.75,540 0,540 0,425.25 13.5,425.25 13.5,310.5 0,310.5 0,229.5 13.5,229.5 13.5,114.75 0,114.75 0,0 114.75,0 114.75,13.5 229.5,13.5 229.5,0 310.5,0 310.5,13.5 425.25,13.5 425.25,0 "
           style="fill:none;stroke:#000000;stroke-width:0.89999998" />
      </g>
      <g
         id="g16"
         transform="translate(562.5,22.5)">
        <polygon
           id="polygon14"
           points="540,0 540,114.75 526.5,114.75 526.5,229.5 540,229.5 540,310.5 526.5,310.5 526.5,425.25 540,425.25 540,540 425.25,540 425.25,526.5 310.5,526.5 310.5,540 229.5,540 229.5,526.5 114.75,526.5 114.75,540 0,540 0,425.25 13.5,425.25 13.5,310.5 0,310.5 0,229.5 13.5,229.5 13.5,114.75 0,114.75 0,0 114.75,0 114.75,13.5 229.5,13.5 229.5,0 310.5,0 310.5,13.5 425.25,13.5 425.25,0 "
           style="fill:none;stroke:#000000;stroke-width:0.89999998" />
      </g>
      <g
         id="g20"
         transform="translate(1102.5,22.5)">
        <polygon
           id="polygon18"
           points="526.5,0 526.5,114.75 540,114.75 540,229.5 526.5,229.5 526.5,310.5 540,310.5 540,425.25 526.5,425.25 526.5,540 425.25,540 425.25,526.5 310.5,526.5 310.5,540 229.5,540 229.5,526.5 114.75,526.5 114.75,540 13.5,540 13.5,425.25 0,425.25 0,310.5 13.5,310.5 13.5,229.5 0,229.5 0,114.75 13.5,114.75 13.5,0 114.75,0 114.75,13.5 229.5,13.5 229.5,0 310.5,0 310.5,13.5 425.25,13.5 425.25,0 "
           style="fill:none;stroke:#000000;stroke-width:0.89999998" />
      </g>
      <g
         id="g24"
         transform="translate(1102.5,562.5)">
        <polygon
           id="polygon22"
           points="526.5,0 526.5,114.75 540,114.75 540,229.5 526.5,229.5 526.5,310.5 540,310.5 540,425.25 526.5,425.25 526.5,540 425.25,540 425.25,526.5 310.5,526.5 310.5,540 229.5,540 229.5,526.5 114.75,526.5 114.75,540 13.5,540 13.5,425.25 0,425.25 0,310.5 13.5,310.5 13.5,229.5 0,229.5 0,114.75 13.5,114.75 13.5,0 114.75,0 114.75,13.5 229.5,13.5 229.5,0 310.5,0 310.5,13.5 425.25,13.5 425.25,0 "
           style="fill:none;stroke:#000000;stroke-width:0.89999998" />
      </g>
      <g
         id="g28"
         transform="translate(22.5,562.5)">
        <polygon
           id="polygon26"
           points="526.5,13.5 526.5,114.75 540,114.75 540,229.5 526.5,229.5 526.5,310.5 540,310.5 540,425.25 526.5,425.25 526.5,526.5 425.25,526.5 425.25,540 310.5,540 310.5,526.5 229.5,526.5 229.5,540 114.75,540 114.75,526.5 13.5,526.5 13.5,425.25 0,425.25 0,310.5 13.5,310.5 13.5,229.5 0,229.5 0,114.75 13.5,114.75 13.5,13.5 114.75,13.5 114.75,0 229.5,0 229.5,13.5 310.5,13.5 310.5,0 425.25,0 425.25,13.5 "
           style="fill:none;stroke:#000000;stroke-width:0.89999998" />
      </g>
      <g
         id="g32"
         transform="translate(562.5,562.5)">
        <polygon
           id="polygon30"
           points="526.5,13.5 526.5,114.75 540,114.75 540,229.5 526.5,229.5 526.5,310.5 540,310.5 540,425.25 526.5,425.25 526.5,526.5 425.25,526.5 425.25,540 310.5,540 310.5,526.5 229.5,526.5 229.5,540 114.75,540 114.75,526.5 13.5,526.5 13.5,425.25 0,425.25 0,310.5 13.5,310.5 13.5,229.5 0,229.5 0,114.75 13.5,114.75 13.5,13.5 114.75,13.5 114.75,0 229.5,0 229.5,13.5 310.5,13.5 310.5,0 425.25,0 425.25,13.5 "
           style="fill:none;stroke:#000000;stroke-width:0.89999998" />
      </g>
    </g>
  </g>
</svg>
