<?xml version="1.0" encoding="UTF-8" standalone="no"?>
<svg
   xmlns:dc="http://purl.org/dc/elements/1.1/"
   xmlns:cc="http://creativecommons.org/ns#"
   xmlns:rdf="http://www.w3.org/1999/02/22-rdf-syntax-ns#"
   xmlns:svg="http://www.w3.org/2000/svg"
   xmlns="http://www.w3.org/2000/svg"
   xmlns:sodipodi="http://sodipodi.sourceforge.net/DTD/sodipodi-0.dtd"
   xmlns:inkscape="http://www.inkscape.org/namespaces/inkscape"
   version="1.1"
   width="18.5in"
   height="12.5in"
   viewBox=" 0 0 1665 1125"
   id="svg34"
   sodipodi:docname="caseplans_box.svg"
   inkscape:version="0.92.1 r15371">
  <metadata
     id="metadata40">
    <rdf:RDF>
      <cc:Work
         rdf:about="">
        <dc:format>image/svg+xml</dc:format>
        <dc:type
           rdf:resource="http://purl.org/dc/dcmitype/StillImage" />
        <dc:title></dc:title>
      </cc:Work>
    </rdf:RDF>
  </metadata>
  <defs
     id="defs38">
    <clipPath
       id="clipPath4625"
       clipPathUnits="userSpaceOnUse">
      <path
         inkscape:connector-curvature="0"
         id="path4623"
         d="M 0,800 H 800 V 0 H 0 Z" />
    </clipPath>
    <clipPath
       id="clipPath4777"
       clipPathUnits="userSpaceOnUse">
      <path
         inkscape:connector-curvature="0"
         id="path4775"
         d="M 0,800 H 800 V 0 H 0 Z" />
    </clipPath>
    <radialGradient
       id="radialGradient7293"
       spreadMethod="pad"
       gradientTransform="matrix(533.97406,0,0,-533.97406,400,400)"
       gradientUnits="userSpaceOnUse"
       r="1"
       cy="0"
       cx="0"
       fy="0"
       fx="0">
      <stop
         id="stop7287"
         offset="0"
         style="stop-opacity:1;stop-color:#f7f7f8" />
      <stop
         id="stop7289"
         offset="0.78514769"
         style="stop-opacity:1;stop-color:#f7f7f8" />
      <stop
         id="stop7291"
         offset="1"
         style="stop-opacity:1;stop-color:#d9dade" />
    </radialGradient>
    <clipPath
       id="clipPath7303"
       clipPathUnits="userSpaceOnUse">
      <path
         inkscape:connector-curvature="0"
         id="path7301"
         d="M 0,800 H 800 V 0 H 0 Z" />
    </clipPath>
  </defs>
  <sodipodi:namedview
     pagecolor="#ffffff"
     bordercolor="#666666"
     borderopacity="1"
     objecttolerance="10"
     gridtolerance="10"
     guidetolerance="10"
     inkscape:pageopacity="0"
     inkscape:pageshadow="2"
     inkscape:window-width="1920"
     inkscape:window-height="1018"
     id="namedview36"
     showgrid="false"
     inkscape:zoom="0.7075"
     inkscape:cx="867.5053"
     inkscape:cy="600"
     inkscape:window-x="-8"
     inkscape:window-y="-8"
     inkscape:window-maximized="1"
     inkscape:current-layer="svg34" />
  <!-- Front-->
  <g
     transform="translate(22.5, 22.5) "
     id="g12">
    <polygon
       style="stroke:#000000; fill:none; stroke-width:0.9"
       points="0, 0 114.74999999999999, 0 114.74999999999999, 13.5 229.49999999999997, 13.5 229.49999999999997, 0 310.5, 0 310.5, 13.5 425.24999999999994, 13.5 425.24999999999994, 0 540, 0 540, 114.74999999999999 526.5, 114.74999999999999 526.5, 229.49999999999997 540, 229.49999999999997 540, 310.5 526.5, 310.5 526.5, 425.24999999999994 540, 425.24999999999994 540, 540 425.24999999999994, 540 425.24999999999994, 526.5 310.5, 526.5 310.5, 540 229.49999999999997, 540 229.49999999999997, 526.5 114.74999999999999, 526.5 114.74999999999999, 540 0, 540 0, 425.24999999999994 13.5, 425.24999999999994 13.5, 310.5 0, 310.5 0, 229.49999999999997 13.5, 229.49999999999997 13.5, 114.74999999999999 0, 114.74999999999999 "
       id="polygon10" />
  </g>
  <!-- Back-->
  <g
     transform="translate(562.5, 22.5) "
     id="g16">
    <polygon
       style="stroke:#000000; fill:none; stroke-width:0.9"
       points="0, 0 114.74999999999999, 0 114.74999999999999, 13.5 229.49999999999997, 13.5 229.49999999999997, 0 310.5, 0 310.5, 13.5 425.24999999999994, 13.5 425.24999999999994, 0 540, 0 540, 114.74999999999999 526.5, 114.74999999999999 526.5, 229.49999999999997 540, 229.49999999999997 540, 310.5 526.5, 310.5 526.5, 425.24999999999994 540, 425.24999999999994 540, 540 425.24999999999994, 540 425.24999999999994, 526.5 310.5, 526.5 310.5, 540 229.49999999999997, 540 229.49999999999997, 526.5 114.74999999999999, 526.5 114.74999999999999, 540 0, 540 0, 425.24999999999994 13.5, 425.24999999999994 13.5, 310.5 0, 310.5 0, 229.49999999999997 13.5, 229.49999999999997 13.5, 114.74999999999999 0, 114.74999999999999 "
       id="polygon14" />
  </g>
  <!-- Left-->
  <g
     transform="translate(1102.5, 22.5) "
     id="g20">
    <polygon
       style="stroke:#000000; fill:none; stroke-width:0.9"
       points="13.5, 0 114.74999999999999, 0 114.74999999999999, 13.5 229.49999999999997, 13.5 229.49999999999997, 0 310.5, 0 310.5, 13.5 425.24999999999994, 13.5 425.24999999999994, 0 526.5, 0 526.5, 114.74999999999999 540, 114.74999999999999 540, 229.49999999999997 526.5, 229.49999999999997 526.5, 310.5 540, 310.5 540, 425.24999999999994 526.5, 425.24999999999994 526.5, 540 425.24999999999994, 540 425.24999999999994, 526.5 310.5, 526.5 310.5, 540 229.49999999999997, 540 229.49999999999997, 526.5 114.74999999999999, 526.5 114.74999999999999, 540 13.5, 540 13.5, 425.24999999999994 0, 425.24999999999994 0, 310.5 13.5, 310.5 13.5, 229.49999999999997 0, 229.49999999999997 0, 114.74999999999999 13.5, 114.74999999999999 "
       id="polygon18" />
  </g>
  <!-- Right-->
  <g
     transform="translate(1102.5, 562.5) "
     id="g24">
    <polygon
       style="stroke:#000000; fill:none; stroke-width:0.9"
       points="13.5, 0 114.74999999999999, 0 114.74999999999999, 13.5 229.49999999999997, 13.5 229.49999999999997, 0 310.5, 0 310.5, 13.5 425.24999999999994, 13.5 425.24999999999994, 0 526.5, 0 526.5, 114.74999999999999 540, 114.74999999999999 540, 229.49999999999997 526.5, 229.49999999999997 526.5, 310.5 540, 310.5 540, 425.24999999999994 526.5, 425.24999999999994 526.5, 540 425.24999999999994, 540 425.24999999999994, 526.5 310.5, 526.5 310.5, 540 229.49999999999997, 540 229.49999999999997, 526.5 114.74999999999999, 526.5 114.74999999999999, 540 13.5, 540 13.5, 425.24999999999994 0, 425.24999999999994 0, 310.5 13.5, 310.5 13.5, 229.49999999999997 0, 229.49999999999997 0, 114.74999999999999 13.5, 114.74999999999999 "
       id="polygon22" />
  </g>
  <!-- Top-->
  <g
     transform="translate(22.5, 562.5) "
     id="g28">
    <polygon
       style="stroke:#000000; fill:none; stroke-width:0.9"
       points="13.5, 13.5 114.74999999999999, 13.5 114.74999999999999, 0 229.49999999999997, 0 229.49999999999997, 13.5 310.5, 13.5 310.5, 0 425.24999999999994, 0 425.24999999999994, 13.5 526.5, 13.5 526.5, 114.74999999999999 540, 114.74999999999999 540, 229.49999999999997 526.5, 229.49999999999997 526.5, 310.5 540, 310.5 540, 425.24999999999994 526.5, 425.24999999999994 526.5, 526.5 425.24999999999994, 526.5 425.24999999999994, 540 310.5, 540 310.5, 526.5 229.49999999999997, 526.5 229.49999999999997, 540 114.74999999999999, 540 114.74999999999999, 526.5 13.5, 526.5 13.5, 425.24999999999994 0, 425.24999999999994 0, 310.5 13.5, 310.5 13.5, 229.49999999999997 0, 229.49999999999997 0, 114.74999999999999 13.5, 114.74999999999999 "
       id="polygon26" />
  </g>
  <!-- Bottom-->
  <g
     transform="translate(562.5, 562.5) "
     id="g32">
    <polygon
       style="stroke:#000000; fill:none; stroke-width:0.9"
       points="13.5, 13.5 114.74999999999999, 13.5 114.74999999999999, 0 229.49999999999997, 0 229.49999999999997, 13.5 310.5, 13.5 310.5, 0 425.24999999999994, 0 425.24999999999994, 13.5 526.5, 13.5 526.5, 114.74999999999999 540, 114.74999999999999 540, 229.49999999999997 526.5, 229.49999999999997 526.5, 310.5 540, 310.5 540, 425.24999999999994 526.5, 425.24999999999994 526.5, 526.5 425.24999999999994, 526.5 425.24999999999994, 540 310.5, 540 310.5, 526.5 229.49999999999997, 526.5 229.49999999999997, 540 114.74999999999999, 540 114.74999999999999, 526.5 13.5, 526.5 13.5, 425.24999999999994 0, 425.24999999999994 0, 310.5 13.5, 310.5 13.5, 229.49999999999997 0, 229.49999999999997 0, 114.74999999999999 13.5, 114.74999999999999 "
       id="polygon30" />
  </g>
  <path
     id="flowRoot3712"
     transform="scale(0.9375)"
     style="font-style:normal;font-weight:normal;font-size:40px;line-height:0.25;font-family:sans-serif;letter-spacing:0px;word-spacing:0px;fill:none;fill-opacity:1;stroke:#000000;stroke-width:1.4762367;stroke-opacity:1"
     d="M 287.5918,164.83789 177.23633,435.04297 h 40.92578 l 29.72656,-75.30859 h 59.44922 c 0.24814,-0.70833 0.49514,-1.41047 0.74414,-2.14649 0.0202,-0.69214 0.0449,-1.38812 0.0449,-2.11133 v -7.77344 c 0,-1.21456 0.11217,-2.31659 0.30664,-3.32031 -0.39789,-1.47892 -0.33911,-2.66705 -0.11328,-5.39648 0.2401,0.50784 0.78817,1.48335 1.20899,2.14258 0.0671,-0.12945 0.13798,-0.25393 0.20898,-0.37696 -0.58532,-1.47625 -1.51127,-2.83062 -1.96484,-4.35547 -0.21944,-0.73768 -0.0208,-1.54012 0.0215,-2.30859 0.0861,-1.56478 0.24271,-3.37945 0.41406,-5.20312 h -48.10351 l 53.34375,-132.65235 53.14062,132.65235 h -35.84765 v 0.85156 c 0.18156,1.43996 0.34999,2.8824 0.59179,4.3125 0.1003,0.13445 0.23403,0.3278 0.31641,0.42969 0.0574,0.071 -0.24756,0.0137 -0.26367,-0.0762 -0.021,-0.1173 -0.0329,-0.23603 -0.0527,-0.35351 -0.17037,-0.22839 -0.39097,-0.53633 -0.59179,-0.81836 v 5.01172 c 1.8111,3.73666 2.02064,-3.67611 1.57031,3.0039 -0.4255,4.3745 -0.18151,8.76838 -0.13477,13.15235 6e-5,0.29606 -0.0166,0.59388 -0.0273,0.89062 0.0255,-0.0883 0.0581,-0.16492 0.11133,-0.20703 0.25865,-0.20465 0.35876,0.55869 0.48047,0.86524 0.51076,1.28648 0.80017,2.53383 0.95508,3.78711 h 45.3125 l 29.72656,75.30859 h 42.96094 L 341.34375,164.83789 Z" />
  <flowRoot
     xml:space="preserve"
     id="flowRoot3771"
     style="font-style:normal;font-weight:normal;font-size:400px;line-height:1.25;font-family:sans-serif;letter-spacing:0px;word-spacing:0px;fill:none;fill-opacity:1;stroke:#000000;stroke-opacity:1;"
     transform="matrix(1.4341286,0,0,1.0010759,-589.6231,-96.959244)"><flowRegion
       id="flowRegion3773"
       style="font-size:400px;fill:none;stroke:#000000;stroke-opacity:1;"><rect
         id="rect3775"
         width="525.7951"
         height="551.23676"
         x="727.91522"
         y="159.71732"
         style="font-size:400px;fill:none;stroke:#000000;stroke-opacity:1;" /></flowRegion><flowPara
       id="flowPara3777"
       style="text-align:center;text-anchor:middle;fill:none;stroke:#000000;stroke-opacity:1;">1</flowPara></flowRoot>  <path
     sodipodi:type="star"
     style="fill:none;stroke-width:0.9375;stroke:#000000;stroke-opacity:1"
     id="path3783"
     sodipodi:sides="3"
     sodipodi:cx="1382.0671"
     sodipodi:cy="319.34631"
     sodipodi:r1="156.80896"
     sodipodi:r2="77.33625"
     sodipodi:arg1="0.53172412"
     sodipodi:arg2="1.5789217"
     inkscape:flatsided="false"
     inkscape:rounded="0"
     inkscape:randomized="0"
     d="m 1517.2261,398.85162 -135.7873,-2.17161 -135.8048,-0.0352 69.7744,-116.50952 67.9329,-117.59274 66.013,118.68113 z"
     inkscape:transform-center-x="12.161505"
     inkscape:transform-center-y="8.0770609"
     transform="matrix(1.3659223,0,0,1.3364462,-502.18341,-109.01544)" />
  <g
     id="g4759"
     transform="matrix(0.93492771,0,0,-0.88528318,493.99726,500.98161)">
    <path
       d="M 0,0 H 57.071"
       style="fill:none;stroke:#bbdefb;stroke-width:1;stroke-linecap:butt;stroke-linejoin:miter;stroke-miterlimit:10;stroke-dasharray:none;stroke-opacity:1"
       id="path4761"
       inkscape:connector-curvature="0" />
  </g>
  <g
     id="g5115"
     transform="matrix(2.0518598,0,0,-3.1630179,90.108635,811.38079)" />
  <g
     id="g8611"
     transform="matrix(1.0935151,0,0,1.0935151,7.1271342,-52.531279)"
     style="fill:none;stroke:#000000;stroke-opacity:1">
    <path
       style="fill:none;fill-opacity:1;fill-rule:nonzero;stroke:#000000;stroke-width:2.97599983;stroke-miterlimit:4;stroke-dasharray:none;stroke-opacity:1"
       d="M 329.1543 745 C 324.62315 745.00704 320.02986 745.01953 315.375 745.01953 C 267.18545 745.01953 225.19283 789.40715 209.15039 808.79492 C 203.99279 815.02631 198.26784 819.95449 192.10742 823.40039 C 173.91099 833.58312 135.65784 854.84456 114.83594 861.13867 C 83.983619 870.46915 83.984375 899.1875 83.984375 899.1875 L 83.984375 952.82031 C 83.984375 963.32402 89.51043 971.84375 96.324219 971.84375 L 114.83594 971.84375 C 114.83594 1003.3622 131.41322 1028.9141 151.85938 1028.9141 C 172.30553 1028.9141 188.88086 1003.3622 188.88086 971.84375 L 406.72852 971.84375 C 406.72852 1003.3622 423.3058 1028.9141 443.75195 1028.9141 C 464.19811 1028.9141 480.77344 1003.3622 480.77344 971.84375 L 515.91406 971.84375 L 546.76367 951.12305 L 546.76367 898.71875 C 546.76367 888.21135 541.24 879.69727 534.42383 879.69727 L 534.42383 818.32422 C 534.42383 813.07053 531.662 808.8125 528.25391 808.8125 L 500.98633 808.8125 C 497.87022 808.8125 494.81605 807.15553 492.51367 803.91992 C 451.20642 745.86384 397.12151 744.89441 329.1543 745 z "
       transform="matrix(0.85732698,0,0,0.85732698,-6.5176367,48.038915)"
       id="path5105" />
  </g>
  <g
     transform="matrix(1.25,0,0,-1.25,530.62758,1206.4412)"
     id="g7275" />
  <g
     transform="matrix(5.6352481,0.04365996,0.04366005,-5.6352481,964.52395,785.10565)"
     id="g7477"
     style="fill:none;stroke:#000000;stroke-opacity:1;stroke-width:1.00613668;stroke-miterlimit:4;stroke-dasharray:none">
    <path
       inkscape:connector-curvature="0"
       id="path7479"
       style="fill:none;fill-opacity:1;fill-rule:nonzero;stroke:#000000;stroke-opacity:1;stroke-width:1.00613668;stroke-miterlimit:4;stroke-dasharray:none"
       d="m 0,0 c -0.947,0 -1.723,0.773 -1.723,1.725 0,0.949 0.776,1.722 1.723,1.722 0.951,0 1.723,-0.773 1.723,-1.722 C 1.723,0.773 0.951,0 0,0 M 8.813,1.002 8.787,1.038 C 8.227,1.807 7.645,2.602 7.033,3.49 4.215,7.583 1.602,9.571 -0.959,9.571 c -0.115,0 -0.232,-0.002 -0.35,-0.013 -0.619,0.942 -2.56,4.384 -4.209,7.393 -1.822,2.783 -3.527,4.264 -5.228,4.52 l -0.162,0.014 c -0.608,0 -1.131,-0.432 -1.559,-1.295 -0.178,-0.456 -0.058,-1.185 1.645,-5.076 -1.256,2.102 -2.678,4.164 -4.455,4.826 -0.44,0.166 -0.809,0.242 -1.139,0.242 -0.684,0 -1.035,-0.339 -1.211,-0.626 -0.504,-0.814 -0.184,-2.332 0.969,-4.627 1.183,-2.771 2.193,-5.163 2.842,-6.739 1.023,-2.523 1.06,-3.35 1.119,-4.607 l 0.004,-0.134 c 0.017,-0.282 0.029,-0.583 0.058,-0.944 0.022,-0.155 -0.154,-0.343 -0.492,-0.53 -0.299,-0.163 -0.584,-0.254 -0.801,-0.254 -0.068,0 -0.129,0.008 -0.168,0.025 -1.843,0.819 -3.25,1.468 -4.193,1.934 l -0.129,0.049 c -3.473,0.803 -6.687,1.21 -9.547,1.21 -13.158,0 -16.881,-8.561 -18.883,-13.162 l -0.148,-0.348 -0.035,-0.113 c -0.883,-4.184 -1.442,-8.3 -1.666,-12.238 -0.401,0.385 -0.848,0.851 -1.246,1.266 -1.477,1.544 -2.28,2.348 -3.002,2.348 -1.274,0 -1.92,-1.1 -1.92,-3.27 0,-2.169 2.496,-6.403 5.715,-8.609 0.677,-0.488 1.5,-0.482 2.345,0.015 0.293,0.181 0.473,0.248 0.561,0.272 1.527,-1.423 2.814,-2.521 3.826,-3.262 0.389,-0.523 0.803,-1.042 1.221,-1.544 0.646,-0.818 1.195,-1.326 1.679,-1.552 1.493,-0.649 3.702,-1.133 6.758,-1.486 1.522,-0.192 3.78,-0.556 5.592,-0.845 l 0.279,-0.041 c 0.914,-0.147 1.459,-0.235 1.784,-0.285 l 0.005,-0.104 0.147,0.007 c 0.262,0.013 0.533,0.033 0.734,0.147 0.897,0.23 1.553,0.754 1.961,1.567 0.754,1.52 0.311,2.483 -0.197,3.028 -0.252,0.264 -0.879,0.758 -1.912,1.508 -0.401,0.292 -0.924,0.528 -1.395,0.728 7.817,-0.863 13.752,-1.796 14.655,-2.303 1.013,-2.357 3.111,-3.759 6.259,-4.179 1.483,0 2.51,0.574 3.037,1.705 0.52,1.026 0.084,2.178 -1.3,3.439 l -2.075,1.536 c -0.701,0.495 -1.146,0.993 -1.423,1.606 -0.641,0.934 -0.596,1.309 -0.582,1.376 0.009,0.032 0.021,0.08 0.117,0.134 2.254,1.23 4.293,3.178 6.06,5.787 1.623,2.4 2.522,4.8 2.664,7.141 2.049,0.133 4.852,1.709 6.868,3.019 2.488,1.616 3.748,3.523 3.748,5.662 0.002,2.393 -1.522,4.478 -3.453,7.113" />
  </g>
  <g
     transform="matrix(1.2499625,0.00968428,0.0096843,-1.2499625,1024.5052,1166.5124)"
     id="g7561">
    <path
       inkscape:connector-curvature="0"
       id="path7563"
       style="fill:#1e120d;fill-opacity:1;fill-rule:nonzero;stroke:none"
       d="m 0,0 h 0.684 v 0.865 c 0,0.899 0.112,1.614 0.34,2.145 C 1.249,3.539 1.64,3.924 2.183,4.168 2.726,4.406 3.471,4.527 4.417,4.527 6.098,4.527 6.93,4.122 6.93,3.292 6.93,3.03 6.842,2.798 6.665,2.613 6.495,2.423 6.286,2.329 6.047,2.329 5.936,2.329 5.741,2.347 5.463,2.393 5.202,2.434 4.961,2.459 4.774,2.459 4.256,2.459 3.926,2.304 3.772,1.994 3.631,1.695 3.555,1.258 3.555,0.686 V 0 H 4.256 C 5.352,0 5.895,-0.324 5.895,-0.989 5.895,-1.454 5.756,-1.752 5.463,-1.882 5.172,-2.007 4.77,-2.069 4.256,-2.069 H 3.555 v -7.608 c 0,-0.565 -0.133,-0.996 -0.409,-1.29 -0.266,-0.303 -0.612,-0.453 -1.042,-0.453 -0.408,0 -0.742,0.15 -1.017,0.453 -0.268,0.294 -0.403,0.725 -0.403,1.29 v 7.608 h -0.789 c -0.431,0 -0.757,0.091 -0.99,0.287 -0.232,0.189 -0.348,0.442 -0.348,0.755 C -1.443,-0.34 -0.962,0 0,0" />
  </g>
  <g
     transform="matrix(1.2499625,0.00968428,0.0096843,-1.2499625,1036.183,1175.6997)"
     id="g7565">
    <path
       inkscape:connector-curvature="0"
       id="path7567"
       style="fill:#1e120d;fill-opacity:1;fill-rule:nonzero;stroke:none"
       d="m 0,0 v -2.399 c 0,-0.58 -0.148,-1.015 -0.416,-1.306 -0.273,-0.294 -0.617,-0.438 -1.037,-0.438 -0.422,0 -0.76,0.144 -1.024,0.447 -0.263,0.292 -0.398,0.722 -0.398,1.297 v 7.995 c 0,1.292 0.465,1.939 1.395,1.939 0.48,0 0.82,-0.151 1.033,-0.451 0.209,-0.306 0.324,-0.75 0.349,-1.34 0.342,0.59 0.692,1.034 1.053,1.34 0.365,0.3 0.844,0.451 1.447,0.451 C 3.01,7.535 3.59,7.384 4.158,7.084 4.729,6.778 5.012,6.375 5.012,5.883 5.012,5.53 4.889,5.24 4.652,5.015 4.406,4.785 4.146,4.671 3.869,4.671 3.758,4.671 3.504,4.737 3.102,4.869 2.697,4.994 2.342,5.059 2.035,5.059 1.615,5.059 1.27,4.949 1.008,4.73 0.738,4.507 0.529,4.181 0.381,3.746 0.238,3.311 0.139,2.793 0.08,2.196 0.023,1.592 0,0.863 0,0" />
  </g>
  <g
     transform="matrix(1.2499625,0.00968428,0.0096843,-1.2499625,1045.6832,1172.4958)"
     id="g7569">
    <path
       inkscape:connector-curvature="0"
       id="path7571"
       style="fill:#1e120d;fill-opacity:1;fill-rule:nonzero;stroke:none"
       d="M 0,0 H 5.207 C 5.135,0.979 4.875,1.714 4.414,2.201 3.951,2.687 3.352,2.928 2.598,2.928 1.883,2.928 1.295,2.687 0.836,2.192 0.377,1.693 0.098,0.964 0,0 M 5.617,-1.631 H 0 c 0.01,-0.654 0.137,-1.233 0.393,-1.727 0.257,-0.495 0.599,-0.871 1.023,-1.126 0.426,-0.253 0.891,-0.378 1.402,-0.378 0.346,0 0.659,0.041 0.944,0.125 0.281,0.075 0.558,0.205 0.824,0.378 0.268,0.172 0.51,0.351 0.734,0.552 0.225,0.196 0.518,0.462 0.873,0.799 0.153,0.125 0.362,0.19 0.631,0.19 0.297,0 0.533,-0.08 0.719,-0.246 0.184,-0.161 0.271,-0.385 0.271,-0.684 0,-0.26 -0.099,-0.561 -0.296,-0.909 C 7.309,-5.009 7.004,-5.334 6.592,-5.655 6.178,-5.972 5.662,-6.243 5.045,-6.451 4.424,-6.66 3.709,-6.765 2.904,-6.765 c -1.849,0 -3.281,0.522 -4.302,1.577 -1.022,1.055 -1.538,2.478 -1.538,4.279 0,0.847 0.127,1.638 0.383,2.367 0.248,0.73 0.619,1.345 1.106,1.869 0.48,0.515 1.074,0.913 1.785,1.19 C 1.045,4.792 1.83,4.931 2.693,4.931 3.814,4.931 4.775,4.696 5.58,4.22 6.379,3.746 6.988,3.136 7.383,2.387 7.781,1.634 7.982,0.868 7.982,0.089 7.982,-0.626 7.773,-1.096 7.359,-1.31 6.947,-1.526 6.367,-1.631 5.617,-1.631" />
  </g>
  <g
     transform="matrix(1.2499625,0.00968428,0.0096843,-1.2499625,1060.6119,1172.6114)"
     id="g7573">
    <path
       inkscape:connector-curvature="0"
       id="path7575"
       style="fill:#1e120d;fill-opacity:1;fill-rule:nonzero;stroke:none"
       d="M 0,0 H 5.203 C 5.135,0.979 4.867,1.714 4.412,2.201 3.947,2.687 3.348,2.928 2.596,2.928 1.879,2.928 1.295,2.687 0.832,2.192 0.375,1.693 0.092,0.964 0,0 M 5.615,-1.631 H 0 c 0.006,-0.654 0.139,-1.233 0.393,-1.727 0.253,-0.495 0.597,-0.871 1.019,-1.126 0.424,-0.253 0.893,-0.378 1.406,-0.378 0.342,0 0.659,0.041 0.938,0.125 0.285,0.075 0.558,0.205 0.828,0.378 0.268,0.172 0.51,0.351 0.736,0.552 0.219,0.196 0.516,0.462 0.871,0.799 0.151,0.125 0.362,0.19 0.631,0.19 0.299,0 0.533,-0.08 0.721,-0.246 0.18,-0.161 0.268,-0.385 0.268,-0.684 0,-0.26 -0.102,-0.561 -0.305,-0.909 C 7.311,-5.009 7.002,-5.334 6.586,-5.655 6.176,-5.972 5.658,-6.243 5.043,-6.451 4.424,-6.66 3.705,-6.765 2.898,-6.765 c -1.843,0 -3.275,0.522 -4.302,1.577 -1.022,1.055 -1.535,2.478 -1.535,4.279 0,0.847 0.126,1.638 0.382,2.367 0.25,0.73 0.618,1.345 1.102,1.869 0.482,0.515 1.078,0.913 1.789,1.19 0.707,0.275 1.494,0.414 2.355,0.414 1.12,0 2.081,-0.235 2.895,-0.711 C 6.381,3.746 6.984,3.136 7.379,2.387 7.775,1.634 7.982,0.868 7.982,0.089 7.982,-0.626 7.771,-1.096 7.361,-1.31 6.945,-1.526 6.365,-1.631 5.615,-1.631" />
  </g>
  <g
     transform="matrix(1.2499625,0.00968428,0.0096843,-1.2499625,1082.5194,1173.8737)"
     id="g7577">
    <path
       inkscape:connector-curvature="0"
       id="path7579"
       style="fill:#1e120d;fill-opacity:1;fill-rule:nonzero;stroke:none"
       d="m 0,0 c 0,0.758 -0.117,1.407 -0.35,1.947 -0.23,0.55 -0.55,0.959 -0.961,1.254 -0.404,0.291 -0.863,0.436 -1.363,0.436 -0.789,0 -1.457,-0.311 -2,-0.935 -0.545,-0.625 -0.818,-1.541 -0.818,-2.758 0,-1.138 0.271,-2.028 0.812,-2.668 0.541,-0.63 1.205,-0.948 2.006,-0.948 0.477,0 0.92,0.142 1.328,0.413 0.409,0.28 0.735,0.693 0.977,1.25 C -0.123,-1.456 0,-0.782 0,0 M -5.629,4.172 V 3.827 c 0.537,0.663 1.102,1.153 1.69,1.467 0.57,0.31 1.234,0.473 1.97,0.473 0.881,0 1.701,-0.231 2.444,-0.687 C 1.219,4.62 1.801,3.96 2.232,3.079 2.666,2.2 2.883,1.166 2.883,-0.035 2.883,-0.915 2.758,-1.727 2.512,-2.471 2.264,-3.209 1.916,-3.829 1.484,-4.328 1.047,-4.826 0.535,-5.219 -0.055,-5.488 c -0.599,-0.269 -1.23,-0.403 -1.914,-0.403 -0.818,0 -1.51,0.164 -2.064,0.496 -0.559,0.322 -1.088,0.814 -1.596,1.448 v -4.31 c 0,-1.262 -0.463,-1.892 -1.377,-1.892 -0.543,0 -0.894,0.159 -1.076,0.485 -0.168,0.33 -0.258,0.8 -0.258,1.429 v 12.39 c 0,0.547 0.117,0.955 0.354,1.224 0.238,0.267 0.566,0.408 0.98,0.408 0.408,0 0.736,-0.141 0.99,-0.417 0.262,-0.28 0.387,-0.675 0.387,-1.198" />
  </g>
  <g
     transform="matrix(1.2499625,0.00968428,0.0096843,-1.2499625,1091.5535,1168.7494)"
     id="g7581">
    <path
       inkscape:connector-curvature="0"
       id="path7583"
       style="fill:#1e120d;fill-opacity:1;fill-rule:nonzero;stroke:none"
       d="m 0,0 v -8.303 c 0,-0.574 -0.137,-1.005 -0.41,-1.297 -0.276,-0.302 -0.621,-0.446 -1.041,-0.446 -0.424,0 -0.758,0.15 -1.028,0.453 -0.257,0.306 -0.394,0.732 -0.394,1.29 v 8.223 c 0,0.56 0.137,0.989 0.394,1.273 0.27,0.297 0.604,0.439 1.028,0.439 0.42,0 0.765,-0.142 1.041,-0.439 C -0.137,0.909 0,0.506 0,0 m -1.422,2.97 c -0.402,0 -0.74,0.125 -1.021,0.363 -0.286,0.254 -0.43,0.595 -0.43,1.04 0,0.407 0.146,0.744 0.439,1.005 0.289,0.264 0.629,0.398 1.012,0.398 0.377,0 0.703,-0.121 0.99,-0.357 C -0.145,5.177 0,4.83 0,4.373 0,3.933 -0.141,3.587 -0.42,3.338 -0.701,3.095 -1.031,2.97 -1.422,2.97" />
  </g>
  <g
     transform="matrix(1.2499625,0.00968428,0.0096843,-1.2499625,1103.0383,1179.7591)"
     id="g7585">
    <path
       inkscape:connector-curvature="0"
       id="path7587"
       style="fill:#1e120d;fill-opacity:1;fill-rule:nonzero;stroke:none"
       d="M 0,0 -2.529,4.17 -4.09,2.698 V 0.412 c 0,-0.553 -0.144,-0.974 -0.439,-1.268 -0.283,-0.303 -0.625,-0.454 -1.002,-0.454 -0.444,0 -0.789,0.144 -1.043,0.447 -0.248,0.292 -0.379,0.722 -0.379,1.297 v 12.25 c 0,0.634 0.125,1.12 0.367,1.451 0.248,0.337 0.602,0.503 1.055,0.503 0.441,0 0.789,-0.151 1.049,-0.458 0.261,-0.296 0.392,-0.743 0.392,-1.33 V 5.884 l 3.229,3.388 c 0.402,0.419 0.703,0.708 0.916,0.864 0.213,0.15 0.465,0.232 0.763,0.232 0.362,0 0.659,-0.116 0.905,-0.342 C 1.957,9.796 2.076,9.512 2.076,9.167 2.076,8.753 1.686,8.183 0.91,7.483 L -0.615,6.089 2.328,1.456 C 2.541,1.112 2.703,0.853 2.797,0.673 2.891,0.497 2.941,0.321 2.941,0.162 2.941,-0.296 2.816,-0.651 2.564,-0.918 2.314,-1.18 1.982,-1.31 1.582,-1.31 1.232,-1.31 0.961,-1.221 0.771,-1.025 0.582,-0.832 0.32,-0.492 0,0" />
  </g>
  <g
     transform="matrix(1.2499625,0.00968428,0.0096843,-1.2499625,1110.8233,1181.4564)"
     id="g7589">
    <path
       inkscape:connector-curvature="0"
       id="path7591"
       style="fill:#1e120d;fill-opacity:1;fill-rule:nonzero;stroke:none"
       d="m 0,0 c -0.436,0 -0.807,0.139 -1.123,0.421 -0.314,0.276 -0.475,0.673 -0.475,1.181 0,0.425 0.155,0.794 0.455,1.1 0.303,0.31 0.674,0.46 1.114,0.46 0.441,0 0.818,-0.15 1.134,-0.451 C 1.414,2.405 1.574,2.032 1.574,1.602 1.574,1.098 1.414,0.709 1.105,0.428 0.789,0.139 0.42,0 0,0" />
  </g>
  <g
     transform="matrix(1.2499625,0.00968428,0.0096843,-1.2499625,1128.7088,1177.1491)"
     id="g7593">
    <path
       inkscape:connector-curvature="0"
       id="path7595"
       style="fill:#1e120d;fill-opacity:1;fill-rule:nonzero;stroke:none"
       d="m 0,0 c 0,-0.36 -0.109,-0.741 -0.322,-1.146 -0.213,-0.413 -0.541,-0.793 -0.983,-1.167 -0.435,-0.367 -0.986,-0.661 -1.654,-0.888 -0.666,-0.222 -1.416,-0.338 -2.248,-0.338 -1.777,0 -3.164,0.519 -4.16,1.554 -0.992,1.035 -1.492,2.421 -1.492,4.158 0,1.185 0.226,2.223 0.687,3.13 0.451,0.899 1.111,1.601 1.975,2.095 0.861,0.498 1.896,0.741 3.092,0.741 0.744,0 1.425,-0.11 2.05,-0.326 0.621,-0.214 1.143,-0.499 1.578,-0.838 0.426,-0.351 0.758,-0.713 0.985,-1.098 0.228,-0.393 0.34,-0.755 0.34,-1.097 0,-0.339 -0.125,-0.633 -0.381,-0.868 C -0.791,3.671 -1.104,3.55 -1.461,3.55 c -0.242,0 -0.441,0.066 -0.6,0.187 -0.158,0.125 -0.335,0.322 -0.531,0.595 -0.351,0.535 -0.715,0.934 -1.099,1.198 -0.379,0.271 -0.866,0.402 -1.455,0.402 -0.844,0 -1.534,-0.331 -2.051,-0.996 -0.518,-0.659 -0.78,-1.573 -0.78,-2.716 0,-0.538 0.071,-1.042 0.204,-1.491 0.127,-0.449 0.322,-0.836 0.576,-1.158 0.254,-0.316 0.556,-0.555 0.912,-0.722 0.361,-0.173 0.754,-0.253 1.18,-0.253 0.578,0 1.07,0.137 1.478,0.404 0.418,0.267 0.777,0.674 1.094,1.219 0.174,0.321 0.359,0.574 0.56,0.754 0.203,0.179 0.453,0.276 0.748,0.276 0.354,0 0.645,-0.135 0.873,-0.401 C -0.119,0.586 0,0.294 0,0" />
  </g>
  <g
     transform="matrix(1.2499625,0.00968428,0.0096843,-1.2499625,1140.6104,1174.3934)"
     id="g7597">
    <path
       inkscape:connector-curvature="0"
       id="path7599"
       style="fill:#1e120d;fill-opacity:1;fill-rule:nonzero;stroke:none"
       d="M 0,0 C 0,1.172 -0.258,2.078 -0.771,2.732 -1.285,3.391 -1.979,3.717 -2.848,3.717 -3.41,3.717 -3.902,3.573 -4.332,3.281 -4.762,2.987 -5.086,2.563 -5.32,1.989 -5.549,1.422 -5.666,0.76 -5.666,0 c 0,-0.754 0.111,-1.4 0.34,-1.964 0.232,-0.56 0.555,-0.993 0.982,-1.29 0.428,-0.296 0.924,-0.449 1.496,-0.449 0.869,0 1.563,0.328 2.077,0.985 C -0.258,-2.06 0,-1.155 0,0 m 2.885,0 c 0,-0.854 -0.137,-1.641 -0.393,-2.365 -0.275,-0.723 -0.656,-1.347 -1.164,-1.858 -0.502,-0.523 -1.111,-0.92 -1.805,-1.195 -0.709,-0.278 -1.496,-0.417 -2.371,-0.417 -0.867,0 -1.652,0.139 -2.345,0.421 -0.69,0.276 -1.297,0.682 -1.803,1.201 -0.51,0.526 -0.893,1.144 -1.162,1.853 -0.254,0.714 -0.391,1.501 -0.391,2.36 0,0.868 0.141,1.668 0.399,2.393 0.267,0.725 0.652,1.339 1.15,1.847 0.5,0.511 1.098,0.909 1.807,1.186 0.711,0.275 1.494,0.417 2.345,0.417 0.869,0 1.659,-0.142 2.371,-0.422 C 0.227,5.141 0.83,4.737 1.34,4.228 1.848,3.698 2.23,3.085 2.494,2.372 2.752,1.654 2.885,0.864 2.885,0" />
  </g>
  <g
     transform="matrix(1.2499625,0.00968428,0.0096843,-1.2499625,1157.9002,1174.7897)"
     id="g7601">
    <path
       inkscape:connector-curvature="0"
       id="path7603"
       style="fill:#1e120d;fill-opacity:1;fill-rule:nonzero;stroke:none"
       d="m 0,0 v -3.818 c 0,-0.604 -0.131,-1.048 -0.406,-1.354 -0.278,-0.303 -0.633,-0.453 -1.084,-0.453 -0.434,0 -0.791,0.15 -1.053,0.453 -0.273,0.306 -0.41,0.75 -0.41,1.354 v 4.577 c 0,0.722 -0.024,1.286 -0.072,1.688 C -3.076,2.838 -3.211,3.168 -3.426,3.428 -3.645,3.683 -3.99,3.813 -4.457,3.813 -5.4,3.813 -6.016,3.491 -6.312,2.838 -6.607,2.199 -6.762,1.27 -6.762,0.06 v -3.878 c 0,-0.593 -0.136,-1.044 -0.402,-1.35 -0.273,-0.307 -0.629,-0.457 -1.068,-0.457 -0.436,0 -0.793,0.15 -1.071,0.457 -0.277,0.306 -0.418,0.757 -0.418,1.35 V 4.4 c 0,0.536 0.129,0.951 0.373,1.231 0.256,0.28 0.582,0.422 0.987,0.422 0.394,0 0.72,-0.137 0.986,-0.397 0.262,-0.26 0.391,-0.624 0.391,-1.089 V 4.296 c 0.504,0.59 1.035,1.034 1.601,1.309 0.572,0.286 1.197,0.427 1.897,0.427 0.72,0 1.34,-0.146 1.857,-0.43 0.52,-0.292 0.945,-0.73 1.283,-1.306 C 0.143,4.881 0.662,5.321 1.215,5.605 1.77,5.886 2.383,6.032 3.055,6.032 3.838,6.032 4.52,5.87 5.088,5.564 5.652,5.26 6.074,4.811 6.355,4.246 6.604,3.722 6.723,2.903 6.723,1.789 V -3.818 C 6.723,-4.422 6.586,-4.866 6.314,-5.172 6.045,-5.475 5.68,-5.625 5.23,-5.625 c -0.435,0 -0.789,0.15 -1.066,0.457 -0.277,0.306 -0.416,0.757 -0.416,1.35 V 1.015 C 3.748,1.632 3.721,2.124 3.67,2.498 3.617,2.867 3.477,3.18 3.246,3.433 3.012,3.683 2.658,3.813 2.191,3.813 1.814,3.813 1.453,3.691 1.113,3.471 0.773,3.248 0.508,2.942 0.314,2.572 0.109,2.084 0,1.229 0,0" />
  </g>
  <g
     transform="matrix(1.2499625,0.00968428,0.0096843,-1.2499625,999.53089,1181.8503)"
     id="g7605">
    <path
       inkscape:connector-curvature="0"
       id="path7607"
       style="fill:#1e120d;fill-opacity:1;fill-rule:evenodd;stroke:none"
       d="m 0,0 c 0,0 -1.568,0.251 -3.098,1.923 -1.54,1.688 -1.799,3.473 -1.799,3.473 0,0 1.954,-0.459 3.356,-0.616 C 0.933,4.5 3.16,4.655 4.209,4.771 6.482,5.022 7.691,5.439 8.184,5.56 c 2.902,0.699 5.693,2.577 5.693,2.577 0,0 0.353,-2.181 -1.285,-4.601 C 11.95,2.593 10.676,1.508 9.208,0.759 4.181,-1.386 0,0 0,0" />
  </g>
  <g
     transform="matrix(1.2499625,0.00968428,0.0096843,-1.2499625,1010.9147,1169.6542)"
     id="g7609">
    <path
       inkscape:connector-curvature="0"
       id="path7611"
       style="fill:#1e120d;fill-opacity:1;fill-rule:evenodd;stroke:none"
       d="m 0,0 c -1.042,-0.059 -1.938,0.725 -2.004,1.76 -0.064,1.033 0.73,1.929 1.77,1.993 C 0.804,3.823 1.707,3.033 1.77,2.003 1.836,0.966 1.038,0.068 0,0 m -8.454,-2.123 c -1.654,-0.105 -3.078,1.139 -3.181,2.789 -0.101,1.642 1.157,3.066 2.811,3.167 1.656,0.113 3.084,-1.14 3.181,-2.78 0.106,-1.648 -1.156,-3.072 -2.811,-3.176 M 2.838,2.568 C 2.3,3.223 0.5,6.305 -3.141,6.754 c -0.93,0.111 -5.853,-0.082 -8.806,-2.812 -0.291,-0.278 -1.791,-1.592 -2.287,-4.046 -0.389,-1.894 0.245,-4.027 0.245,-4.027 0,0 3.275,-0.683 5.743,-0.619 3.912,0.097 5.883,0.443 7.927,1.062 3.012,0.911 5.146,2.439 5.146,2.439 0,0 -1.446,3.159 -1.989,3.817" />
  </g>
  <g
     transform="matrix(1.2499625,0.00968428,0.0096843,-1.2499625,1012.7388,1163.7893)"
     id="g7613">
    <path
       inkscape:connector-curvature="0"
       id="path7615"
       style="fill:#1e120d;fill-opacity:1;fill-rule:evenodd;stroke:none"
       d="m 0,0 0.952,1.142 c 0,0 1.313,-0.65 2.157,-1.864 0.841,-1.213 1.389,-2.322 1.389,-2.322 L 2.929,-3.998 c 0,0 -0.488,1.17 -1.217,2.109 C 0.983,-0.955 0,0 0,0" />
  </g>
  <g
     transform="matrix(1.2499625,0.00968428,0.0096843,-1.2499625,1016.4628,1164.8094)"
     id="g7617">
    <path
       inkscape:connector-curvature="0"
       id="path7619"
       style="fill:#1e120d;fill-opacity:1;fill-rule:evenodd;stroke:none"
       d="M 0,0 C 0.246,0.146 0.66,0.171 0.635,0.518 0.617,0.864 0.383,1.548 1.067,1.782 1.758,2.014 1.369,1.577 1.132,1.276 0.896,0.975 0.973,0.789 1.001,0.347 1.026,-0.091 0.719,-0.241 0.254,-0.458 -0.213,-0.677 -0.248,-0.146 0,0" />
  </g>
  <g
     transform="matrix(1.2499625,0.00968428,0.0096843,-1.2499625,994.65364,1165.5169)"
     id="g7621">
    <path
       inkscape:connector-curvature="0"
       id="path7623"
       style="fill:#1e120d;fill-opacity:1;fill-rule:evenodd;stroke:none"
       d="m 0,0 c 0,0 -1.101,-1.278 -1.382,-2.434 -0.277,-1.16 -0.221,-2.554 -0.221,-2.554 l -1.629,0.56 c 0,0 -0.093,1.604 0.648,2.898 0.824,1.438 1.88,2.079 1.88,2.079 z" />
  </g>
  <g
     transform="matrix(1.2499625,0.00968428,0.0096843,-1.2499625,991.64152,1167.3113)"
     id="g7625">
    <path
       inkscape:connector-curvature="0"
       id="path7627"
       style="fill:#1e120d;fill-opacity:1;fill-rule:evenodd;stroke:none"
       d="m 0,0 c -0.265,0.171 -0.29,0.583 -0.499,0.854 -0.209,0.276 -0.263,0.11 -0.741,0.11 -0.479,0 -0.491,0.227 -0.626,0.344 -0.137,0.121 -0.201,-0.365 -0.201,-0.365 0,0 0.088,-0.406 0.601,-0.435 0.51,-0.029 0.497,0.221 0.717,-0.239 0.22,-0.465 0.656,-0.816 0.656,-0.816 0,0 0.362,0.371 0.093,0.547" />
  </g>
  <g
     transform="matrix(1.2499625,0.00968428,0.0096843,-1.2499625,1002.5142,1159.8074)"
     id="g7629">
    <path
       inkscape:connector-curvature="0"
       id="path7631"
       style="fill:#1e120d;fill-opacity:1;fill-rule:evenodd;stroke:none"
       d="m 0,0 c 2.674,0.67 4.346,-0.101 4.346,-0.101 l -0.143,-0.77 c 0,0 -1.953,0.13 -3.504,-0.1 -1.548,-0.223 -2.253,-0.713 -2.253,-0.713 l -0.335,0.768 c 0,0 0.732,0.626 1.889,0.916" />
  </g>
  <g
     transform="matrix(1.2499625,0.00968428,0.0096843,-1.2499625,1003.5258,1158.4431)"
     id="g7633">
    <path
       inkscape:connector-curvature="0"
       id="path7635"
       style="fill:#1e120d;fill-opacity:1;fill-rule:evenodd;stroke:none"
       d="M 0,0 0.377,0.137 0.873,-1.194 0.5,-1.338 Z" />
  </g>
  <g
     transform="matrix(1.2499625,0.00968428,0.0096843,-1.2499625,1018.2243,1161.6528)"
     id="g7637">
    <path
       inkscape:connector-curvature="0"
       id="path7639"
       style="fill:#1e120d;fill-opacity:1;fill-rule:evenodd;stroke:none"
       d="M 0,0 C 0.378,0.021 0.702,-0.267 0.724,-0.641 0.751,-1.019 0.463,-1.34 0.084,-1.365 -0.294,-1.39 -0.618,-1.101 -0.641,-0.729 -0.665,-0.351 -0.378,-0.029 0,0" />
  </g>
  <g
     transform="matrix(1.2499625,0.00968428,0.0096843,-1.2499625,988.84713,1164.6577)"
     id="g7641">
    <path
       inkscape:connector-curvature="0"
       id="path7643"
       style="fill:#1e120d;fill-opacity:1;fill-rule:evenodd;stroke:none"
       d="M 0,0 C 0.376,0.024 0.702,-0.262 0.727,-0.638 0.749,-1.012 0.464,-1.331 0.083,-1.355 -0.292,-1.381 -0.616,-1.097 -0.642,-0.723 -0.665,-0.347 -0.376,-0.027 0,0" />
  </g>
  <g
     transform="matrix(1.2499625,0.00968428,0.0096843,-1.2499625,1003.9512,1156.3162)"
     id="g7645">
    <path
       inkscape:connector-curvature="0"
       id="path7647"
       style="fill:#1e120d;fill-opacity:1;fill-rule:evenodd;stroke:none"
       d="M 0,0 C 0.601,0.034 1.12,-0.414 1.157,-1.016 1.192,-1.607 0.734,-2.127 0.134,-2.166 -0.468,-2.207 -0.982,-1.754 -1.021,-1.152 -1.062,-0.553 -0.603,-0.036 0,0" />
  </g>
  <g
     transform="matrix(1.2499625,0.00968428,0.0096843,-1.2499625,892.56985,1171.9051)"
     id="g7649">
    <path
       inkscape:connector-curvature="0"
       id="path7651"
       style="fill:#1e120d;fill-opacity:1;fill-rule:nonzero;stroke:none"
       d="m 0,0 c -1.044,0 -1.562,-1.094 -1.562,-2.043 0,-0.935 0.518,-2.026 1.562,-2.026 1.099,0 1.573,1.116 1.573,2.096 C 1.573,-1 1.073,0 0,0 m 3.583,-4.707 c 0,-0.673 -0.423,-1.114 -1.008,-1.114 -0.553,0 -0.875,0.3 -1.002,0.837 -0.377,-0.616 -1.154,-0.917 -1.838,-0.917 -2.021,0 -3.302,1.871 -3.302,3.769 0,1.957 1.072,3.976 3.233,3.976 0.696,0 1.378,-0.243 1.907,-0.699 v 2.734 c 0,0.667 0.418,1.109 1.002,1.109 0.585,0 1.008,-0.442 1.008,-1.109 z" />
  </g>
  <g
     transform="matrix(1.2499625,0.00968428,0.0096843,-1.2499625,904.41779,1173.6998)"
     id="g7653">
    <path
       inkscape:connector-curvature="0"
       id="path7655"
       style="fill:#1e120d;fill-opacity:1;fill-rule:nonzero;stroke:none"
       d="M 0,0 C -0.109,0.88 -0.669,1.529 -1.604,1.529 -2.494,1.529 -3.096,0.851 -3.191,0 Z m -3.152,-1.339 c 0.144,-0.985 0.963,-1.45 1.901,-1.45 1.028,0 1.737,0.805 2.271,0.805 0.428,0 0.816,-0.426 0.816,-0.865 0,-0.863 -1.78,-1.69 -3.272,-1.69 -2.259,0 -3.761,1.641 -3.761,3.858 0,2.035 1.476,3.887 3.593,3.887 2.174,0 3.61,-1.977 3.61,-3.652 0,-0.598 -0.266,-0.893 -0.877,-0.893 z" />
  </g>
  <g
     transform="matrix(1.2499625,0.00968428,0.0096843,-1.2499625,913.10264,1172.6881)"
     id="g7657">
    <path
       inkscape:connector-curvature="0"
       id="path7659"
       style="fill:#1e120d;fill-opacity:1;fill-rule:nonzero;stroke:none"
       d="m 0,0 c -0.377,0 -1.143,0.59 -1.8,0.59 -0.36,0 -0.682,-0.17 -0.682,-0.565 0,-0.933 3.484,-0.793 3.484,-3.078 0,-1.335 -1.128,-2.349 -2.859,-2.349 -1.127,0 -2.8,0.635 -2.8,1.541 0,0.304 0.307,0.887 0.864,0.887 0.78,0 1.128,-0.678 2.074,-0.678 0.615,0 0.797,0.198 0.797,0.574 0,0.921 -3.482,0.779 -3.482,3.078 0,1.393 1.129,2.343 2.717,2.343 0.988,0 2.506,-0.462 2.506,-1.453 C 0.819,0.434 0.472,0 0,0" />
  </g>
  <g
     transform="matrix(1.2499625,0.00968428,0.0096843,-1.2499625,915.21812,1171.2798)"
     id="g7661">
    <path
       inkscape:connector-curvature="0"
       id="path7663"
       style="fill:#1e120d;fill-opacity:1;fill-rule:nonzero;stroke:none"
       d="M 0,0 C 0,0.67 0.417,1.119 1.004,1.119 1.588,1.119 2.006,0.67 2.006,0 V -5.348 C 2.006,-6.021 1.588,-6.462 1.004,-6.462 0.417,-6.462 0,-6.021 0,-5.348 Z m 2.132,3.026 c 0,-0.629 -0.5,-1.158 -1.128,-1.158 -0.6,0 -1.13,0.545 -1.13,1.158 0,0.572 0.53,1.101 1.13,1.101 0.598,0 1.128,-0.513 1.128,-1.101" />
  </g>
  <g
     transform="matrix(1.2499625,0.00968428,0.0096843,-1.2499625,923.20493,1172.1425)"
     id="g7665">
    <path
       inkscape:connector-curvature="0"
       id="path7667"
       style="fill:#1e120d;fill-opacity:1;fill-rule:nonzero;stroke:none"
       d="m 0,0 c -1.044,0 -1.557,-1.084 -1.557,-2.019 0,-1.073 0.513,-2.05 1.557,-2.05 1.072,0 1.576,1.007 1.576,1.984 C 1.576,-1.114 1.103,0 0,0 m 3.583,-5.153 c 0,-2.411 -1.575,-3.628 -3.86,-3.628 -0.821,0 -3.164,0.408 -3.164,1.508 0,0.374 0.417,0.877 0.812,0.877 0.639,0 1.35,-0.622 2.506,-0.622 0.977,0 1.699,0.563 1.699,1.588 v 0.472 H 1.549 c -0.416,-0.612 -1.102,-0.943 -2.02,-0.943 -2.103,0 -3.096,1.845 -3.096,3.841 0,2.02 1.28,3.904 3.302,3.904 0.687,0 1.462,-0.308 1.841,-0.918 C 1.703,1.45 2.021,1.76 2.58,1.76 3.164,1.76 3.583,1.311 3.583,0.641 Z" />
  </g>
  <g
     transform="matrix(1.2499625,0.00968428,0.0096843,-1.2499625,929.1167,1171.3875)"
     id="g7669">
    <path
       inkscape:connector-curvature="0"
       id="path7671"
       style="fill:#1e120d;fill-opacity:1;fill-rule:nonzero;stroke:none"
       d="m 0,0 c 0,0.67 0.416,1.119 1.003,1.119 0.515,0 0.851,-0.278 0.919,-0.745 0.391,0.547 0.988,0.829 1.937,0.829 1.575,0 2.745,-1.005 2.745,-2.702 v -3.849 c 0,-0.673 -0.414,-1.114 -1,-1.114 -0.583,0 -1.006,0.441 -1.006,1.114 v 3.495 c 0,0.935 -0.583,1.379 -1.309,1.379 -0.824,0 -1.281,-0.599 -1.281,-1.379 v -3.495 c 0,-0.673 -0.42,-1.114 -1.005,-1.114 C 0.416,-6.462 0,-6.021 0,-5.348 Z" />
  </g>
  <g
     transform="matrix(1.2499625,0.00968428,0.0096843,-1.2499625,944.73883,1174.0122)"
     id="g7673">
    <path
       inkscape:connector-curvature="0"
       id="path7675"
       style="fill:#1e120d;fill-opacity:1;fill-rule:nonzero;stroke:none"
       d="M 0,0 C -0.111,0.88 -0.67,1.529 -1.604,1.529 -2.496,1.529 -3.098,0.851 -3.192,0 Z m -3.151,-1.339 c 0.141,-0.985 0.962,-1.45 1.897,-1.45 1.032,0 1.741,0.805 2.27,0.805 0.432,0 0.826,-0.426 0.826,-0.865 0,-0.863 -1.787,-1.69 -3.278,-1.69 -2.259,0 -3.761,1.641 -3.761,3.858 0,2.035 1.476,3.887 3.593,3.887 2.175,0 3.609,-1.977 3.609,-3.652 0,-0.598 -0.265,-0.893 -0.877,-0.893 z" />
  </g>
  <g
     transform="matrix(1.2499625,0.00968428,0.0096843,-1.2499625,952.24204,1172.3674)"
     id="g7677">
    <path
       inkscape:connector-curvature="0"
       id="path7679"
       style="fill:#1e120d;fill-opacity:1;fill-rule:nonzero;stroke:none"
       d="m 0,0 c -1.047,0 -1.561,-1.094 -1.561,-2.043 0,-0.935 0.514,-2.026 1.561,-2.026 1.098,0 1.574,1.116 1.574,2.096 C 1.574,-1 1.072,0 0,0 m 3.58,-4.707 c 0,-0.673 -0.42,-1.114 -1.006,-1.114 -0.554,0 -0.874,0.3 -1,0.837 -0.379,-0.616 -1.157,-0.917 -1.841,-0.917 -2.018,0 -3.299,1.871 -3.299,3.769 0,1.957 1.071,3.976 3.233,3.976 0.694,0 1.378,-0.243 1.907,-0.699 v 2.734 c 0,0.667 0.417,1.109 1,1.109 0.586,0 1.006,-0.442 1.006,-1.109 z" />
  </g>
  <g
     transform="matrix(1.2499625,0.00968428,0.0096843,-1.2499625,967.25106,1177.5706)"
     id="g7681">
    <path
       inkscape:connector-curvature="0"
       id="path7683"
       style="fill:#1e120d;fill-opacity:1;fill-rule:nonzero;stroke:none"
       d="m 0,0 c 1.044,0 1.559,1.092 1.559,2.026 0,0.95 -0.515,2.043 -1.559,2.043 -1.072,0 -1.574,-1 -1.574,-1.972 C -1.574,1.116 -1.098,0 0,0 m -3.584,7.948 c 0,0.667 0.422,1.11 1.008,1.11 0.586,0 1.002,-0.443 1.002,-1.11 V 5.214 c 0.531,0.456 1.211,0.699 1.907,0.699 2.16,0 3.232,-2.018 3.232,-3.976 0,-1.898 -1.279,-3.769 -3.301,-3.769 -0.685,0 -1.463,0.302 -1.838,0.917 -0.127,-0.536 -0.447,-0.837 -1.002,-0.837 -0.586,0 -1.008,0.441 -1.008,1.114 z" />
  </g>
  <g
     transform="matrix(1.2499625,0.00968428,0.0096843,-1.2499625,972.18777,1172.046)"
     id="g7685">
    <path
       inkscape:connector-curvature="0"
       id="path7687"
       style="fill:#1e120d;fill-opacity:1;fill-rule:nonzero;stroke:none"
       d="m 0,0 c -0.056,0.15 -0.1,0.306 -0.1,0.513 0,0.506 0.531,0.866 0.95,0.866 0.485,0 0.835,-0.269 1.004,-0.709 L 3.229,-3.112 4.71,0.67 c 0.167,0.44 0.513,0.709 1.003,0.709 0.418,0 0.945,-0.36 0.945,-0.866 C 6.658,0.306 6.632,0.15 6.563,0 L 3.204,-8.364 C 3.039,-8.779 2.73,-9.162 2.257,-9.162 c -0.683,0 -1.044,0.437 -1.044,0.863 0,0.203 0.057,0.408 0.122,0.589 l 0.88,2.176 z" />
  </g>
</svg>
