<?xml version="1.0" encoding="UTF-8" standalone="no"?>
<svg
   xmlns:dc="http://purl.org/dc/elements/1.1/"
   xmlns:cc="http://creativecommons.org/ns#"
   xmlns:rdf="http://www.w3.org/1999/02/22-rdf-syntax-ns#"
   xmlns:svg="http://www.w3.org/2000/svg"
   xmlns="http://www.w3.org/2000/svg"
   xmlns:xlink="http://www.w3.org/1999/xlink"
   xmlns:sodipodi="http://sodipodi.sourceforge.net/DTD/sodipodi-0.dtd"
   xmlns:inkscape="http://www.inkscape.org/namespaces/inkscape"
   version="1.1"
   width="18.5in"
   height="12.5in"
   viewBox=" 0 0 1665 1125"
   id="svg4624"
   sodipodi:docname="caseplans (2).svg"
   inkscape:version="0.92.1 r15371">
  <metadata
     id="metadata4630">
    <rdf:RDF>
      <cc:Work
         rdf:about="">
        <dc:format>image/svg+xml</dc:format>
        <dc:type
           rdf:resource="http://purl.org/dc/dcmitype/StillImage" />
        <dc:title></dc:title>
      </cc:Work>
    </rdf:RDF>
  </metadata>
  <defs
     id="defs4628" />
  <sodipodi:namedview
     pagecolor="#ffffff"
     bordercolor="#666666"
     borderopacity="1"
     objecttolerance="10"
     gridtolerance="10"
     guidetolerance="10"
     inkscape:pageopacity="0"
     inkscape:pageshadow="2"
     inkscape:window-width="1920"
     inkscape:window-height="1018"
     id="namedview4626"
     showgrid="false"
     inkscape:document-units="in"
     showguides="true"
     inkscape:guide-bbox="true"
     inkscape:snap-perpendicular="true"
     inkscape:zoom="0.70710678"
     inkscape:cx="893.39933"
     inkscape:cy="565.89278"
     inkscape:window-x="-8"
     inkscape:window-y="-8"
     inkscape:window-maximized="1"
     inkscape:current-layer="svg4624">
    <sodipodi:guide
       position="292.5,1106.1604"
       orientation="1,0"
       id="guide5221"
       inkscape:locked="false"
       inkscape:label=""
       inkscape:color="rgb(0,0,255)" />
    <sodipodi:guide
       position="135,615.87"
       orientation="0,1"
       id="guide5223"
       inkscape:locked="false"
       inkscape:label=""
       inkscape:color="rgb(0,0,255)" />
    <sodipodi:guide
       position="75.87,787.5"
       orientation="1,0"
       inkscape:locked="false"
       id="guide5262"
       inkscape:label=""
       inkscape:color="rgb(0,0,255)" />
    <sodipodi:guide
       position="38.16,832.5"
       orientation="0,1"
       inkscape:locked="false"
       id="guide5264"
       inkscape:label=""
       inkscape:color="rgb(0,0,255)" />
    <sodipodi:guide
       position="94.13359,1048.1408"
       orientation="0,1"
       id="guide5268"
       inkscape:locked="false"
       inkscape:label=""
       inkscape:color="rgb(0,0,255)" />
    <sodipodi:guide
       position="509.13,877.5"
       orientation="1,0"
       id="guide5270"
       inkscape:locked="false"
       inkscape:label=""
       inkscape:color="rgb(0,0,255)" />
    <sodipodi:guide
       position="135,292.5"
       orientation="0,1"
       id="guide5435"
       inkscape:locked="false"
       inkscape:label=""
       inkscape:color="rgb(0,0,255)" />
  </sodipodi:namedview>
  <!-- Front-->
  <g
     transform="translate(22.5, 22.5) "
     id="g4602">
    <polygon
       style="stroke:#000000; fill:none; stroke-width:0.9"
       points="0, 0 112.5, 0 112.5, 15.659999999999998 225, 15.659999999999998 225, 0 315, 0 315, 15.659999999999998 427.5, 15.659999999999998 427.5, 0 540, 0 540, 112.5 524.34, 112.5 524.34, 225 540, 225 540, 315 524.34, 315 524.34, 427.5 540, 427.5 540, 540 427.5, 540 427.5, 524.34 315, 524.34 315, 540 225, 540 225, 524.34 112.5, 524.34 112.5, 540 0, 540 0, 427.5 15.659999999999998, 427.5 15.659999999999998, 315 0, 315 0, 225 15.659999999999998, 225 15.659999999999998, 112.5 0, 112.5 "
       id="polygon4600" />
  </g>
  <!-- Back-->
  <g
     transform="translate(562.5, 22.5) "
     id="g4606">
    <polygon
       style="stroke:#000000; fill:none; stroke-width:0.9"
       points="0, 0 112.5, 0 112.5, 15.659999999999998 225, 15.659999999999998 225, 0 315, 0 315, 15.659999999999998 427.5, 15.659999999999998 427.5, 0 540, 0 540, 112.5 524.34, 112.5 524.34, 225 540, 225 540, 315 524.34, 315 524.34, 427.5 540, 427.5 540, 540 427.5, 540 427.5, 524.34 315, 524.34 315, 540 225, 540 225, 524.34 112.5, 524.34 112.5, 540 0, 540 0, 427.5 15.659999999999998, 427.5 15.659999999999998, 315 0, 315 0, 225 15.659999999999998, 225 15.659999999999998, 112.5 0, 112.5 "
       id="polygon4604" />
  </g>
  <!-- Left-->
  <g
     transform="translate(1102.5, 22.5) "
     id="g4610">
    <polygon
       style="stroke:#000000; fill:none; stroke-width:0.9"
       points="15.659999999999998, 0 112.5, 0 112.5, 15.659999999999998 225, 15.659999999999998 225, 0 315, 0 315, 15.659999999999998 427.5, 15.659999999999998 427.5, 0 524.34, 0 524.34, 112.5 540, 112.5 540, 225 524.34, 225 524.34, 315 540, 315 540, 427.5 524.34, 427.5 524.34, 540 427.5, 540 427.5, 524.34 315, 524.34 315, 540 225, 540 225, 524.34 112.5, 524.34 112.5, 540 15.659999999999998, 540 15.659999999999998, 427.5 0, 427.5 0, 315 15.659999999999998, 315 15.659999999999998, 225 0, 225 0, 112.5 15.659999999999998, 112.5 "
       id="polygon4608" />
  </g>
  <!-- Right-->
  <g
     transform="translate(1102.5, 562.5) "
     id="g4614">
    <polygon
       style="stroke:#000000; fill:none; stroke-width:0.9"
       points="15.659999999999998, 0 112.5, 0 112.5, 15.659999999999998 225, 15.659999999999998 225, 0 315, 0 315, 15.659999999999998 427.5, 15.659999999999998 427.5, 0 524.34, 0 524.34, 112.5 540, 112.5 540, 225 524.34, 225 524.34, 315 540, 315 540, 427.5 524.34, 427.5 524.34, 540 427.5, 540 427.5, 524.34 315, 524.34 315, 540 225, 540 225, 524.34 112.5, 524.34 112.5, 540 15.659999999999998, 540 15.659999999999998, 427.5 0, 427.5 0, 315 15.659999999999998, 315 15.659999999999998, 225 0, 225 0, 112.5 15.659999999999998, 112.5 "
       id="polygon4612" />
  </g>
  <!-- Top-->
  <g
     transform="translate(22.5, 562.5) "
     id="g4618">
    <polygon
       style="stroke:#000000; fill:none; stroke-width:0.9"
       points="15.659999999999998, 15.659999999999998 112.5, 15.659999999999998 112.5, 0 225, 0 225, 15.659999999999998 315, 15.659999999999998 315, 0 427.5, 0 427.5, 15.659999999999998 524.34, 15.659999999999998 524.34, 112.5 540, 112.5 540, 225 524.34, 225 524.34, 315 540, 315 540, 427.5 524.34, 427.5 524.34, 524.34 427.5, 524.34 427.5, 540 315, 540 315, 524.34 225, 524.34 225, 540 112.5, 540 112.5, 524.34 15.659999999999998, 524.34 15.659999999999998, 427.5 0, 427.5 0, 315 15.659999999999998, 315 15.659999999999998, 225 0, 225 0, 112.5 15.659999999999998, 112.5 "
       id="polygon4616" />
  </g>
  <!-- Bottom-->
  <g
     transform="translate(562.5, 562.5) "
     id="g4622">
    <polygon
       style="stroke:#000000; fill:none; stroke-width:0.9"
       points="15.659999999999998, 15.659999999999998 112.5, 15.659999999999998 112.5, 0 225, 0 225, 15.659999999999998 315, 15.659999999999998 315, 0 427.5, 0 427.5, 15.659999999999998 524.34, 15.659999999999998 524.34, 112.5 540, 112.5 540, 225 524.34, 225 524.34, 315 540, 315 540, 427.5 524.34, 427.5 524.34, 524.34 427.5, 524.34 427.5, 540 315, 540 315, 524.34 225, 524.34 225, 540 112.5, 540 112.5, 524.34 15.659999999999998, 524.34 15.659999999999998, 427.5 0, 427.5 0, 315 15.659999999999998, 315 15.659999999999998, 225 0, 225 0, 112.5 15.659999999999998, 112.5 "
       id="polygon4620" />
  </g>
  <path
     id="flowRoot3712"
     style="font-style:normal;font-weight:normal;font-size:40px;line-height:0.25;font-family:sans-serif;letter-spacing:0px;word-spacing:0px;fill:none;fill-opacity:1;stroke:#000000;stroke-width:1.38397193;stroke-opacity:1"
     d="M 260.17034,175.01944 156.71208,428.3367 H 195.08 l 27.86865,-70.6018 56.55029,-0.0586 V 328.81336 H 234.4019 L 284.41167,204.45178 334.231,328.81336 h -33.60717 c -0.01,6.97512 0,18.71315 0,29.15574 l 45.25093,-0.23425 27.86865,70.60181 h 40.27588 L 310.56279,175.01944 Z"
     inkscape:connector-curvature="0"
     sodipodi:nodetypes="cccccccccccccccc" />
  <flowRoot
     xml:space="preserve"
     id="flowRoot3771"
     style="font-style:normal;font-weight:normal;font-size:400px;line-height:1.25;font-family:sans-serif;letter-spacing:0px;word-spacing:0px;fill:none;fill-opacity:1;stroke:#000000;stroke-opacity:1"
     transform="matrix(1.4341286,0,0,1.0010759,-599.07009,-76.475315)"><flowRegion
       id="flowRegion3773"
       style="font-size:400px;fill:none;stroke:#000000;stroke-opacity:1"><rect
         id="rect3775"
         width="525.7951"
         height="551.23676"
         x="727.91522"
         y="159.71732"
         style="font-size:400px;fill:none;stroke:#000000;stroke-opacity:1" /></flowRegion><flowPara
       id="flowPara3777"
       style="text-align:center;text-anchor:middle;fill:none;stroke:#000000;stroke-opacity:1">1</flowPara></flowRoot>  <path
     sodipodi:type="star"
     style="fill:none;stroke:#000000;stroke-width:0.9375;stroke-opacity:1"
     id="path3783"
     sodipodi:sides="3"
     sodipodi:cx="1382.0671"
     sodipodi:cy="319.34631"
     sodipodi:r1="156.80896"
     sodipodi:r2="77.33625"
     sodipodi:arg1="0.53172412"
     sodipodi:arg2="1.5789217"
     inkscape:flatsided="false"
     inkscape:rounded="0"
     inkscape:randomized="0"
     d="m 1517.2261,398.85162 -135.7873,-2.17161 -135.8048,-0.0352 69.7744,-116.50952 67.9329,-117.59274 66.013,118.68113 z"
     inkscape:transform-center-x="12.161505"
     inkscape:transform-center-y="8.0770609"
     transform="matrix(1.3659223,0,0,1.3364462,-511.63039,-88.531525)" />
  <g
     id="g8611"
     transform="matrix(0.74205504,0,0,0.92594592,96.05763,111.8921)"
     style="fill:none;stroke:#000000;stroke-width:1.31920981;stroke-opacity:1">
    <path
       style="fill:none;fill-opacity:1;fill-rule:nonzero;stroke:#000000;stroke-width:3.92596865;stroke-miterlimit:4;stroke-dasharray:none;stroke-opacity:1"
       d="m 329.1543,745 c -4.53115,0.007 -9.12444,0.0195 -13.7793,0.0195 -48.18955,0 -90.18217,44.38762 -106.22461,63.77539 -5.1576,6.23139 -10.88255,11.15957 -17.04297,14.60547 -18.19643,10.18273 -56.44958,31.44417 -77.27148,37.73828 -30.852321,9.33048 -30.851565,38.04883 -30.851565,38.04883 v 53.63281 c 0,10.50371 5.526055,19.02344 12.339844,19.02344 h 18.511721 c 0,31.51848 16.57728,57.07038 37.02344,57.07038 20.44615,0 37.02148,-25.5519 37.02148,-57.07038 h 217.84766 c 0,31.51848 16.57728,57.07038 37.02343,57.07038 20.44616,0 37.02149,-25.5519 37.02149,-57.07038 h 35.14062 l 30.84961,-20.7207 v -52.4043 c 0,-10.5074 -5.52367,-19.02148 -12.33984,-19.02148 v -61.37305 c 0,-5.25369 -2.76183,-9.51172 -6.16992,-9.51172 h -27.26758 c -3.11611,0 -6.17028,-1.65697 -8.47266,-4.89258 C 451.20642,745.86384 397.12151,744.89441 329.1543,745 Z"
       transform="matrix(0.85732698,0,0,0.85732698,-6.5176367,48.038915)"
       id="path5105"
       inkscape:connector-curvature="0" />
  </g>
  <g
     transform="matrix(5.6352481,0.04365996,0.04366005,-5.6352481,933.87554,796.31395)"
     id="g7477"
     style="fill:none;stroke:#000000;stroke-width:1.00613666;stroke-miterlimit:4;stroke-dasharray:none;stroke-opacity:1">
    <path
       inkscape:connector-curvature="0"
       id="path7479"
       style="fill:none;fill-opacity:1;fill-rule:nonzero;stroke:#000000;stroke-width:1.00613666;stroke-miterlimit:4;stroke-dasharray:none;stroke-opacity:1"
       d="m 0,0 c -0.947,0 -1.723,0.773 -1.723,1.725 0,0.949 0.776,1.722 1.723,1.722 0.951,0 1.723,-0.773 1.723,-1.722 C 1.723,0.773 0.951,0 0,0 M 8.813,1.002 8.787,1.038 C 8.227,1.807 7.645,2.602 7.033,3.49 4.215,7.583 1.602,9.571 -0.959,9.571 c -0.115,0 -0.232,-0.002 -0.35,-0.013 -0.619,0.942 -2.56,4.384 -4.209,7.393 -1.822,2.783 -3.527,4.264 -5.228,4.52 l -0.162,0.014 c -0.608,0 -1.131,-0.432 -1.559,-1.295 -0.178,-0.456 -0.058,-1.185 1.645,-5.076 -1.256,2.102 -2.678,4.164 -4.455,4.826 -0.44,0.166 -0.809,0.242 -1.139,0.242 -0.684,0 -1.035,-0.339 -1.211,-0.626 -0.504,-0.814 -0.184,-2.332 0.969,-4.627 1.183,-2.771 2.193,-5.163 2.842,-6.739 1.023,-2.523 1.06,-3.35 1.119,-4.607 l 0.004,-0.134 c 0.017,-0.282 0.029,-0.583 0.058,-0.944 0.022,-0.155 -0.154,-0.343 -0.492,-0.53 -0.299,-0.163 -0.584,-0.254 -0.801,-0.254 -0.068,0 -0.129,0.008 -0.168,0.025 -1.843,0.819 -3.25,1.468 -4.193,1.934 l -0.129,0.049 c -3.473,0.803 -6.687,1.21 -9.547,1.21 -13.158,0 -16.881,-8.561 -18.883,-13.162 l -0.148,-0.348 -0.035,-0.113 c -0.883,-4.184 -1.442,-8.3 -1.666,-12.238 -0.401,0.385 -0.848,0.851 -1.246,1.266 -1.477,1.544 -2.28,2.348 -3.002,2.348 -1.274,0 -1.92,-1.1 -1.92,-3.27 0,-2.169 2.496,-6.403 5.715,-8.609 0.677,-0.488 1.5,-0.482 2.345,0.015 0.293,0.181 0.473,0.248 0.561,0.272 1.527,-1.423 2.814,-2.521 3.826,-3.262 0.389,-0.523 0.803,-1.042 1.221,-1.544 0.646,-0.818 1.195,-1.326 1.679,-1.552 1.493,-0.649 3.702,-1.133 6.758,-1.486 1.522,-0.192 3.78,-0.556 5.592,-0.845 l 0.279,-0.041 c 0.914,-0.147 1.459,-0.235 1.784,-0.285 l 0.005,-0.104 0.147,0.007 c 0.262,0.013 0.533,0.033 0.734,0.147 0.897,0.23 1.553,0.754 1.961,1.567 0.754,1.52 0.311,2.483 -0.197,3.028 -0.252,0.264 -0.879,0.758 -1.912,1.508 -0.401,0.292 -0.924,0.528 -1.395,0.728 7.817,-0.863 13.752,-1.796 14.655,-2.303 1.013,-2.357 3.111,-3.759 6.259,-4.179 1.483,0 2.51,0.574 3.037,1.705 0.52,1.026 0.084,2.178 -1.3,3.439 l -2.075,1.536 c -0.701,0.495 -1.146,0.993 -1.423,1.606 -0.641,0.934 -0.596,1.309 -0.582,1.376 0.009,0.032 0.021,0.08 0.117,0.134 2.254,1.23 4.293,3.178 6.06,5.787 1.623,2.4 2.522,4.8 2.664,7.141 2.049,0.133 4.852,1.709 6.868,3.019 2.488,1.616 3.748,3.523 3.748,5.662 0.002,2.393 -1.522,4.478 -3.453,7.113" />
  </g>
  <g
     id="g5349"
     inkscape:tile-cx="292.50027"
     inkscape:tile-cy="292.99512"
     inkscape:tile-w="450.8063"
     inkscape:tile-h="449.81604"
     inkscape:tile-x0="67.097116"
     inkscape:tile-y0="68.087098"
     style="fill:none;fill-opacity:1">
    <path
       id="path5227"
       d="m 301.18418,76.862099 a 8.6850004,8.6850004 0 0 1 -8.685,8.685 8.6850004,8.6850004 0 0 1 -8.685,-8.685 8.6850004,8.6850004 0 0 1 8.685,-8.685001 8.6850004,8.6850004 0 0 1 8.685,8.685001 z"
       style="fill:none;fill-opacity:1;stroke:#000000;stroke-width:0.18000001;stroke-miterlimit:4;stroke-dasharray:none;stroke-opacity:1"
       inkscape:connector-curvature="0" />
    <path
       id="path5227-4"
       d="m 301.18372,509.12814 a 8.6850004,8.6850004 0 0 1 -8.685,8.685 8.6850004,8.6850004 0 0 1 -8.685,-8.685 8.6850004,8.6850004 0 0 1 8.685,-8.685 8.6850004,8.6850004 0 0 1 8.685,8.685 z"
       style="fill:none;fill-opacity:1;stroke:#000000;stroke-width:0.18000002;stroke-miterlimit:4;stroke-dasharray:none;stroke-opacity:1"
       inkscape:connector-curvature="0" />
    <path
       id="path5227-4-7"
       d="m 84.557117,292.50177 a 8.6850004,8.6850004 0 0 1 -8.685001,8.685 8.6850004,8.6850004 0 0 1 -8.685,-8.685 8.6850004,8.6850004 0 0 1 8.685,-8.685 8.6850004,8.6850004 0 0 1 8.685001,8.685 z"
       style="fill:none;fill-opacity:1;stroke:#000000;stroke-width:0.18000004;stroke-miterlimit:4;stroke-dasharray:none;stroke-opacity:1"
       inkscape:connector-curvature="0" />
    <path
       id="path5227-4-7-4"
       d="m 517.81342,292.5 a 8.6850004,8.6850004 0 0 1 -8.685,8.685 8.6850004,8.6850004 0 0 1 -8.685,-8.685 8.6850004,8.6850004 0 0 1 8.685,-8.685 8.6850004,8.6850004 0 0 1 8.685,8.685 z"
       style="fill:none;fill-opacity:1;stroke:#000000;stroke-width:0.18000004;stroke-miterlimit:4;stroke-dasharray:none;stroke-opacity:1"
       inkscape:connector-curvature="0" />
  </g>
  <use
     x="0"
     y="0"
     inkscape:tiled-clone-of="#g5349"
     xlink:href="#g5349"
     id="use5423" />
  <use
     x="0"
     y="0"
     inkscape:tiled-clone-of="#g5349"
     xlink:href="#g5349"
     transform="translate(0,539.77925)"
     id="use5425" />
  <use
     x="0"
     y="0"
     inkscape:tiled-clone-of="#g5349"
     xlink:href="#g5349"
     transform="translate(540.96756)"
     id="use5427" />
  <use
     x="0"
     y="0"
     inkscape:tiled-clone-of="#g5349"
     xlink:href="#g5349"
     transform="translate(540.96756,539.77925)"
     id="use5429" />
  <use
     x="0"
     y="0"
     inkscape:tiled-clone-of="#g5349"
     xlink:href="#g5349"
     transform="translate(1081.9351)"
     id="use5431" />
  <use
     x="0"
     y="0"
     inkscape:tiled-clone-of="#g5349"
     xlink:href="#g5349"
     transform="translate(1081.9351,539.77925)"
     id="use5433" />
</svg>
